<?xml version="1.0" encoding="UTF-8"?>
<svg version="1.1" xmlns="http://www.w3.org/2000/svg" width="232" height="229">
<path d="M0 0 C76.56 0 153.12 0 232 0 C232 75.57 232 151.14 232 229 C155.44 229 78.88 229 0 229 C0 153.43 0 77.86 0 0 Z " fill="#FEFEFE" transform="translate(0,0)"/>
<path d="M0 0 C0.74693115 -0.01788574 1.4938623 -0.03577148 2.26342773 -0.05419922 C5.1256487 -0.04962542 7.47509628 0.00370674 10.0390625 1.3515625 C11.66107904 4.45939572 11.54763957 7.57757357 11.5 11 C11.49315186 11.75313477 11.48630371 12.50626953 11.47924805 13.28222656 C11.25480294 21.3353506 9.47076205 28.65993045 7.0625 36.3125 C6.711875 37.43398437 6.36125 38.55546875 6 39.7109375 C1.28867061 53.22329193 -8.04972536 68.43305305 -20.04711914 76.78027344 C-23.41150544 79.2250732 -25.63196164 80.88737005 -26.52807617 85.06713867 C-26.617682 88.30758324 -26.48826105 91.45477402 -26.25 94.6875 C-25.71875183 104.1045729 -25.76322989 111.40680983 -31 119.5 C-38.91250643 128.05214019 -51.26440806 132.26599099 -62.4921875 133.72265625 C-64.9375 133.3125 -64.9375 133.3125 -67.08300781 131.23779297 C-69.43422101 127.52896773 -69.28896912 125.45346657 -69.0546875 121.09765625 C-69.00695294 119.68049105 -68.9641563 118.26315265 -68.92578125 116.84570312 C-68.90338379 116.11359619 -68.88098633 115.38148926 -68.85791016 114.62719727 C-68.33139648 99.40189216 -68.33139648 99.40189216 -74.9375 86.3125 C-82.88303367 78.94946704 -95.29907032 79.98959891 -105.47070312 80.30078125 C-106.18528183 80.32012726 -106.89986053 80.33947327 -107.63609314 80.35940552 C-109.61267636 80.42598303 -111.58789446 80.5300112 -113.56274414 80.63623047 C-117.5944152 80.24948404 -119.14680057 79.1894759 -121.9375 76.3125 C-123.71679174 66.82294406 -117.89139694 56.18150096 -113.0625 48.375 C-108.5068532 41.94349864 -103.60743869 39.06164848 -95.9375 37.3125 C-92.76469206 37.0664625 -89.61801599 37.07726714 -86.4375 37.125 C-85.62152344 37.12564453 -84.80554688 37.12628906 -83.96484375 37.12695312 C-79.19280455 37.16142211 -74.64358183 37.52182765 -69.9375 38.3125 C-69.69 37.75046875 -69.4425 37.1884375 -69.1875 36.609375 C-58.90120514 17.7083082 -35.86857024 7.52977794 -16.30078125 1.5 C-10.93339379 0.18776945 -5.50054388 0.09084205 0 0 Z " fill="#5249E5" transform="translate(178.9375,47.6875)"/>
<path d="M0 0 C0.91895391 15.92853442 -6.68301903 31.8897638 -16.95703125 43.7734375 C-17.63121094 44.50820312 -18.30539063 45.24296875 -19 46 C-19.66386719 46.75539062 -20.32773438 47.51078125 -21.01171875 48.2890625 C-29.52902593 57.45185876 -45.35600035 69.39194416 -58 71 C-59.64746094 69.92016602 -59.64746094 69.92016602 -61.234375 68.25390625 C-61.80800781 67.66416016 -62.38164063 67.07441406 -62.97265625 66.46679688 C-63.55917969 65.83837891 -64.14570312 65.20996094 -64.75 64.5625 C-65.35199219 63.93794922 -65.95398438 63.31339844 -66.57421875 62.66992188 C-68.0609301 61.12421404 -69.5319865 59.5634768 -71 58 C-65.8866694 38.56934373 -50.90009457 20.38880272 -34 10 C-23.00174017 3.87547884 -12.71553655 -0.25431073 0 0 Z " fill="#FDFDFE" transform="translate(176,62)"/>
<path d="M0 0 C6.27439016 3.5310822 9.90434887 6.95523412 12.20703125 13.86328125 C12.91284062 21.02551078 12.5721192 26.96521598 8.20703125 32.86328125 C-0.56877059 42.92683662 -17.42523668 48.04155037 -30.35546875 49.17578125 C-33.79296875 48.86328125 -33.79296875 48.86328125 -36.29296875 47.48828125 C-39.27346461 42.27241349 -37.04006931 35.4119467 -35.59375 29.828125 C-35.11191651 28.14818801 -34.61556325 26.47235398 -34.10546875 24.80078125 C-33.70726929 23.48980469 -33.70726929 23.48980469 -33.30102539 22.15234375 C-30.65616359 13.8334622 -27.33063283 6.7627629 -19.79296875 1.86328125 C-18.49359375 0.99703125 -18.49359375 0.99703125 -17.16796875 0.11328125 C-11.34766348 -2.04238737 -5.81835929 -2.36803154 0 0 Z " fill="#5148E5" transform="translate(84.79296875,142.13671875)"/>
<path d="M0 0 C3.19070045 3.19070045 2.49294955 6.89989989 2.50634766 11.24707031 C2.38426951 15.30787761 1.9815017 18.09081077 -0.625 21.25 C-4.71620383 25.00348654 -8.3824759 27 -14 27 C-14 20.4 -14 13.8 -14 7 C-9.38 4.69 -4.76 2.38 0 0 Z " fill="#FAF9FE" transform="translate(138,138)"/>
<path d="M0 0 C1.02770508 -0.01160156 1.02770508 -0.01160156 2.07617188 -0.0234375 C7.1841133 -0.0033867 7.1841133 -0.0033867 9.4375 2.25 C7.1275 6.87 4.8175 11.49 2.4375 16.25 C-4.1625 16.25 -10.7625 16.25 -17.5625 16.25 C-16.4322479 9.46848739 -16.4322479 9.46848739 -13.6875 6 C-13.17445312 5.33484375 -12.66140625 4.6696875 -12.1328125 3.984375 C-8.45266244 -0.08026835 -5.12412779 -0.05817364 0 0 Z " fill="#FBFBFE" transform="translate(90.5625,97.75)"/>
<path d="M0 0 C1.9375 1.125 1.9375 1.125 3 3 C3.625 6.3125 3.625 6.3125 3 10 C-1.35193512 15.38989665 -7.55628671 18.80070776 -14.375 19.6875 C-15.57125 19.790625 -16.7675 19.89375 -18 20 C-17.5670562 12.06269701 -14.97336112 6.2863465 -9.625 0.375 C-5.9968867 -1.5254403 -3.88992795 -1.08053554 0 0 Z " fill="#F6F6FD" transform="translate(81,155)"/>
</svg>
